# xmcd
#
# Track frame offsets:
# 150
# 13533
# 25085
# 39084
# 58530
# 74285
# 87017
# 101564
# 116689
# 143878
#
# Disc length: 2123 seconds
#
# Revision: 1
# Processed by: cddbd v1.5.2PL0 Copyright (c) Steve Scherf et al.
# Submitted via: CedeCatalogueitor 2.6.0.6 http://personales.ya.com/cdcatalogueitor
#
DISCID=7608490a
DTITLE=Underwater Tea Party - Whta Crisis? This Crisis
DYEAR=1900
DGENRE=
TTITLE0=
TTITLE1=C
TTITLE2=A
TTITLE3=E
TTITLE4=W
TTITLE5=G
TTITLE6=Wt
TTITLE7=Hd
TTITLE8=Qw
TTITLE9=Efeefafeat
EXTD=
EXTT0=
EXTT1=
EXTT2=
EXTT3=
EXTT4=
EXTT5=
EXTT6=
EXTT7=
EXTT8=
EXTT9=
PLAYORDER=
